<svg xmlns="http://www.w3.org/2000/svg" xmlns:xlink="http://www.w3.org/1999/xlink" viewBox="0 0 280.09 280.09"><defs><style>.a{fill:url(#a);}.b,.f{fill:none;}.b{stroke:#20558d;stroke-width:14px;}.b,.e,.f{stroke-miterlimit:10;}.c{opacity:0.4;}.d{fill:#215e95;}.e{fill:#fff;}.e,.f{stroke:#fff;}.f{stroke-width:10px;}</style><radialGradient id="a" cx="140.05" cy="140.05" r="238.38" gradientUnits="userSpaceOnUse"><stop offset="0" stop-color="#0796de"/><stop offset="1" stop-color="#2b578b"/></radialGradient></defs><rect class="a" x="7" y="7" width="266.09" height="266.09" rx="8.03"/><rect class="b" x="7" y="7" width="266.09" height="266.09" rx="12.11"/><g class="c"><rect class="d" x="26.75" y="24.63" width="19.95" height="230.83" rx="1.56"/><rect class="d" x="60.92" y="24.63" width="19.95" height="230.83" rx="1.56"/><rect class="d" x="94.95" y="24.63" width="19.95" height="230.83" rx="1.56"/><rect class="d" x="130.14" y="24.63" width="19.95" height="230.83" rx="1.56"/><rect class="d" x="164.17" y="24.63" width="19.95" height="230.83" rx="1.56"/><rect class="d" x="199.37" y="24.63" width="19.95" height="230.83" rx="1.56"/><rect class="d" x="233.39" y="24.63" width="19.95" height="230.83" rx="1.56"/></g><circle class="e" cx="144.38" cy="69.22" r="15.43"/><circle class="e" cx="54.12" cy="69.22" r="20.02"/><circle class="e" cx="71.93" cy="204.52" r="26.37"/><circle class="e" cx="223.56" cy="126.6" r="10.95"/><circle class="e" cx="230.89" cy="203.36" r="15.1"/><line class="f" x1="230.89" y1="203.36" x2="147.06" y2="135.84"/><line class="f" x1="75.21" y1="201.41" x2="113.23" y2="165.31"/><line class="f" x1="223.56" y1="126.6" x2="182.49" y2="131.56"/><line class="f" x1="144.38" y1="69.22" x2="146.27" y2="116.33"/><line class="f" x1="113.36" y1="111.69" x2="51.23" y2="67.14"/><path class="e" d="M100.27,100.07h77.52a22.23,22.23,0,0,1,4.31.4c30.54,5.92,27.2,50.51-11.74,47.37a.05.05,0,0,0,0,.09l31.07,26.54a2.34,2.34,0,0,1-1.52,4.12h-23a3.21,3.21,0,0,1-2-.69l-37.25-29.44a3.47,3.47,0,0,0-2.14-.74H124.24a5.09,5.09,0,0,0-5.09,5.09v23.37a2.52,2.52,0,0,1-2.52,2.53h-17a2,2,0,0,1-2-2V153.06c-.25-11.92,8.7-20.49,21.93-21.43l55.77-.51a5.33,5.33,0,0,0,5.33-5.33V122.3a6,6,0,0,0-6-6H99.8a2.32,2.32,0,0,1-2.32-2.26l-.27-10.86A3.06,3.06,0,0,1,100.27,100.07Z"/></svg>